# xmcd
#
# Track frame offsets:
#	150
#	14621
#	29155
#	44765
#	57435
#	70785
#	92428
#	108742
#	120834
#	133504
#	147773
#	162213
#	175270
#	185467
#	198785
#
# Disc length: 2809 seconds
#
# Revision: 1
# Processed by: cddbd v1.5.1PL0 Copyright (c) Steve Scherf et al.
# Submitted via: audiograbber 1.83.01
#
DISCID=d20af70f
DTITLE=Ray and June Gilpin - Killbuck Valley Bluegrass
DYEAR=2004
DGENRE=Bluegrass
TTITLE0=Little Girl In Tennessee
TTITLE1=Riding On The Midnight Train
TTITLE2=How Can I Write On Paper
TTITLE3=No More Painting Up The Town
TTITLE4=I Wonder Where You Are Tonight                                         
TTITLE4=            
TTITLE5=Little Maggie
TTITLE6=Why Don't You Tell Me So
TTITLE7=Carolina Mountain Home
TTITLE8=Dark Hollow
TTITLE9=Take Me In YourLife Boat
TTITLE10=Take Your Shoes Off, Moses
TTITLE11=It Was Jesus
TTITLE12=The Lord Made A Change In Me
TTITLE13=When You Go Walking After Midnight
TTITLE14=Molly And Ten Brook
EXTD=
EXTT0=
EXTT1=
EXTT2=
EXTT3=
EXTT4=
EXTT5=
EXTT6=
EXTT7=
EXTT8=
EXTT9=
EXTT10=
EXTT11=
EXTT12=
EXTT13=
EXTT14=
PLAYORDER=
